# xmcd
#
# Track frame offsets:
#	150
#	14679
#	26097
#	42637
#	52922
#	69800
#	85542
#	98880
#	117972
#	127083
#	136791
#
# Disc length: 2059 seconds
#
# Revision: 1
# Processed by: cddbd v1.5.2PL0 Copyright (c) Steve Scherf et al.
# Submitted via: audiograbber 1.83.01
#
DISCID=8e08090b
DTITLE=Lindi Ortega - Tin Star
DYEAR=2013
DGENRE=Country
TTITLE0=Hard as This
TTITLE1=Gypsy Child
TTITLE2=Tin Star
TTITLE3=Voodoo Mama
TTITLE4=Lived and Died Alone
TTITLE5=I Want You
TTITLE6=This is Not Surreal
TTITLE7=Something for You
TTITLE8=All These Cats
TTITLE9=Waitin' on My Luck to Change
TTITLE10=Songs About
EXTD=
EXTT0=
EXTT1=
EXTT2=
EXTT3=
EXTT4=
EXTT5=
EXTT6=
EXTT7=
EXTT8=
EXTT9=
EXTT10=
PLAYORDER=
